<svg fill="none" height="32" viewBox="0 0 32 32" width="32" xmlns="http://www.w3.org/2000/svg"><g fill="#2c7f50"><path d="m16.4298 31.7265c-.177-.4668-.7377-1.8939-.8825-2.2479l-.1368-.3354-.0081-5.7136c-.0027-3.1439-.0108-5.8237-.0161-5.9578-.008-.2199-.0188-.2656-.1073-.4479-.1207-.2415-.3004-.4185-.5553-.5392l-.1743-.0832-2.6959-.0161v-.0885c0-.1797.3701-.9335.8262-1.6792l.2361-.389 1.6899-.0268.1798-.0912c.1985-.102.4076-.3031.5016-.4828.0724-.1449.1341-.4266.1341-.6224v-.1529l.625-.2441c.3659-.1466.7325-.2915 1.0998-.4346.3219-.1287.5016-.185.5633-.1797l.0858.008-.008.55c-.0053.3031.0027.633.0188.735.0536.3729.2736.6706.6143.8396l.1529.0751 4.0774.0268.2413.1368c.2042.1136.4099.2245.617.3326.3514.1851.778.4212.9201.5124.0483.0295.0591.0563.0537.1395l-.0081.1019-.523.2817c-.2871.1529-.6787.3621-.8719.4614l-.3487.1797-4.1042.0268-.169.0886c-.2038.1072-.3755.2575-.4855.4318-.1771.2737-.1636-.2333-.1771 6.2904l-.0133 5.9309-.0832.228c-.0456.1261-.2119.5607-.3648.9657-.1556.4051-.3595.9443-.4507 1.1937l-.169.4561-.0912.008-.0885.0054z"/><path d="m18.117 27.0509c-.0081-.2414-.0108-.4534-.0027-.4667.0107-.0135.0858-.0644.1717-.1127.4613-.2656.6464-.7216.456-1.132-.0885-.1878-.3354-.4533-.4936-.5311l-.1181-.0564v-1.7918h.0886c.0509 0 .2092.067.4077.169.9496.4935 1.4593 1.022 1.6417 1.7087.0617.2387.0617.7806-.0027 1.0193-.161.5982-.6036 1.0918-1.2473 1.3895-.2952.1368-.6385.2468-.7699.2468h-.11zm-3.447-2.956c-.0376-.0054-.2415-.0349-.456-.0645-.7377-.1019-1.639-.3111-2.256-.523-.8933-.3059-1.8214-.794-2.56717-1.3493-.39163-.2924-1.132-1.014-1.40557-1.3707-1.15887-1.5049-1.63631-3.101-1.49687-5.0029.14219-1.9581.9335-3.5194 2.41425-4.7533.88525-.7403 1.85626-1.26078 3.43896-1.84284.1422-.05369.5901-.1985.9925-.32194.6867-.21187 1.1427-.32994 3.8842-1.00587 1.7436-.42925 2.543-.71894 3.2136-1.16425.4882-.32725.8799-.79125.9523-1.132.0509-.24407-.0886-.64107-.3273-.94688-.4587-.57937-1.6094-1.04887-2.6878-1.09712-1.1052-.04832-2.2506.338-3.624 1.2205-1.0247.65718-1.7731.99787-2.4143 1.09443-.3299.051-.8878.03488-1.132-.0295-.1985-.05362-.4452-.177-.6115-.30312-.1154-.08581-.1288-.10725-.1288-.1985 0-.07775.0107-.10188.0483-.10463.0241 0-.1342-.03218-.3568-.06706-1.18836-.19044-1.3493-.24944-1.67655-.63575-.23337-.27356-.34875-.515-.34875-.72962 0-.23607.05906-.41038.17975-.52844.05631-.05363.24681-.17169.42381-.26556.17707-.09125.42388-.22532.54994-.29775.48013-.27363 1.3573-.69207 1.5907-.75913.4051-.11537.5419-.12875 1.3949-.13681.4533-.00538.9201-.02144 1.0327-.0375.4051-.05375.7485-.17713 1.3252-.47219 1.4324-.732311 1.7141-.852999 2.3633-1.019374.3621-.091125.9468-.1877497 1.3841-.2279372.5257-.045625 1.6255-.01875001 2.1084.0563125 1.0113.1528747 1.926.4640627 2.6825.9093747 1.2581.743004 2.0199 1.791874 2.2988 3.168004.0564.27893.0618.38087.0618 1.04612 0 .82356-.0242.99519-.22 1.58-.4533 1.35731-1.6068 2.47594-3.5543 3.45233-.9872.4936-1.8804.8047-3.4282 1.191-.9201.2307-2.3176.7002-3.3396 1.124-.5795.2414-1.3815.6411-1.6766.8342-1.0596.6975-1.7678 1.7115-2.0548 2.9373-.0697.3005-.0751.3622-.0751.8852 0 .4829.0081.6036.059.8397.2012.9227.5902 1.655 1.2233 2.3096.6115.6304 1.36 1.1025 2.4732 1.5585.0536.0214.0563.0483.0724.5124.0107.2682.0188.7591.0188 1.089v.5982l-.1395-.0027c-.0778-.0027-.1717-.008-.2092-.016zm-2.7335-18.8766c.3102-.07938.6042-.21188.8691-.39163.2951-.20387.287-.22269-.0241-.06175-.6438.33-1.0622.43725-1.7249.44-.303 0-.4023.008-.3433.02675.2924.09125.837.08588 1.2232-.01337zm-.0536-1.78119c.2924-.14219.4962-.287.4372-.31113-.1421-.05368-.4641.01069-.802.16363-.1181.05362-.279.118-.3595.14212l-.1475.04563.0939.0295c.1663.051.1958.05631.3755.04831.1448-.00812.2226-.0295.4024-.11806z"/><path d="m15.4127 7.67812c-.0107-.00806-.0188-.0885-.0188-.17706 0-.15019-.0027-.15825-.059-.14481-.7323.177-1.0998.21725-1.8429.1985-.6893-.01613-.9227-.05369-1.4646-.23606-.582-.1985-.9979-.44532-1.3251-.78869-.2924-.30844-.4855-.64644-.4855-.84763 0-.09925.0053-.10462.0831-.10462.0671 0 .1261.04025.3058.20925.3675.346.8235.57937 1.3708.70012 1.0247.228 2.0709.04557 3.4845-.60087.9925-.45338 1.7275-.69213 2.4679-.79669.1341-.01875.4667-.03219.7511-.03219.582.00263.9737.059 1.4163.20382l.2602.08318v.10463c0 .0885-.008.10187-.0644.10187-.0349 0-.1824.02419-.3272.05375-.7135.14482-1.2903.41038-1.7088.78057-.1851.16093-.3916.44525-.4292.58475-.0375.13681-.0563.14756-.4345.25218-1.4432.40507-1.9234.515-1.9797.456z"/></g></svg>